<?xml version="1.0" encoding="UTF-8"?>
<svg width="25px" height="24px" viewBox="0 0 25 24" version="1.1" xmlns="http://www.w3.org/2000/svg" xmlns:xlink="http://www.w3.org/1999/xlink">
    <title>Combined Shape 2</title>
    <defs>
        <linearGradient x1="71.7512407%" y1="89.679217%" x2="30.5973814%" y2="8.71324318%" id="linearGradient-1">
            <stop stop-color="#E98408" offset="0%"></stop>
            <stop stop-color="#FCBF18" offset="100%"></stop>
        </linearGradient>
    </defs>
    <g id="首页" stroke="none" stroke-width="1" fill="none" fill-rule="evenodd">
        <g id="-命名规范" transform="translate(-655.000000, -132.000000)">
            <g id="icon/回复" transform="translate(653.500000, 130.000000)" fill="url(#linearGradient-1)">
                <g id="Group" transform="translate(2.000000, 2.000000)">
                    <g id="Combined-Shape-2" transform="translate(0.500000, 0.500000)">
                        <path d="M11.5,0 C17.8512746,0 23,5.14872538 23,11.5 C23,17.8512746 17.8512746,23 11.5,23 C9.44111139,23 7.50859359,22.4589422 5.83687542,21.5112555 L5.83687542,21.5112555 L2.48406873,21.5112555 C1.93243287,21.5112555 1.48498971,21.064547 1.48407008,20.5129119 C1.48133336,18.8476129 1.48196781,17.7293868 1.48597341,17.1582335 C0.540003119,15.4876375 0,13.556881 0,11.5 C0,5.14872538 5.14872538,0 11.5,0 Z M6.9,10.35 C6.26487254,10.35 5.75,10.8648725 5.75,11.5 C5.75,12.1351275 6.26487254,12.65 6.9,12.65 C7.53512746,12.65 8.05,12.1351275 8.05,11.5 C8.05,10.8648725 7.53512746,10.35 6.9,10.35 Z M11.5,10.35 C10.8648725,10.35 10.35,10.8648725 10.35,11.5 C10.35,12.1351275 10.8648725,12.65 11.5,12.65 C12.1351275,12.65 12.65,12.1351275 12.65,11.5 C12.65,10.8648725 12.1351275,10.35 11.5,10.35 Z M16.1,10.35 C15.4648725,10.35 14.95,10.8648725 14.95,11.5 C14.95,12.1351275 15.4648725,12.65 16.1,12.65 C16.7351275,12.65 17.25,12.1351275 17.25,11.5 C17.25,10.8648725 16.7351275,10.35 16.1,10.35 Z" id="Combined-Shape"></path>
                    </g>
                </g>
            </g>
            <g id="icon/integral-copy-2" transform="translate(655.500000, 132.000000)" fill="url(#linearGradient-1)">
                <g id="Group">
                    <g id="Combined-Shape-2" transform="translate(0.500000, 0.500000)">
                        <path d="M11.5,0 C17.8512746,0 23,5.14872538 23,11.5 C23,17.8512746 17.8512746,23 11.5,23 C9.44111139,23 7.50859359,22.4589422 5.83687542,21.5112555 L5.83687542,21.5112555 L2.48406873,21.5112555 C1.93243287,21.5112555 1.48498971,21.064547 1.48407008,20.5129119 C1.48133336,18.8476129 1.48196781,17.7293868 1.48597341,17.1582335 C0.540003119,15.4876375 0,13.556881 0,11.5 C0,5.14872538 5.14872538,0 11.5,0 Z M6.9,10.35 C6.26487254,10.35 5.75,10.8648725 5.75,11.5 C5.75,12.1351275 6.26487254,12.65 6.9,12.65 C7.53512746,12.65 8.05,12.1351275 8.05,11.5 C8.05,10.8648725 7.53512746,10.35 6.9,10.35 Z M11.5,10.35 C10.8648725,10.35 10.35,10.8648725 10.35,11.5 C10.35,12.1351275 10.8648725,12.65 11.5,12.65 C12.1351275,12.65 12.65,12.1351275 12.65,11.5 C12.65,10.8648725 12.1351275,10.35 11.5,10.35 Z M16.1,10.35 C15.4648725,10.35 14.95,10.8648725 14.95,11.5 C14.95,12.1351275 15.4648725,12.65 16.1,12.65 C16.7351275,12.65 17.25,12.1351275 17.25,11.5 C17.25,10.8648725 16.7351275,10.35 16.1,10.35 Z" id="Combined-Shape"></path>
                    </g>
                </g>
            </g>
        </g>
    </g>
</svg>