<?xml version="1.0" encoding="UTF-8"?>
<svg width="20px" height="20px" viewBox="0 0 20 20" version="1.1" xmlns="http://www.w3.org/2000/svg" xmlns:xlink="http://www.w3.org/1999/xlink">
    <!-- Generator: Sketch 56.3 (81716) - https://sketch.com -->
    <g id="个人中心" stroke="none" stroke-width="1" fill="none" fill-rule="evenodd">
        <g id="个人中心-编辑" transform="translate(-178.000000, -150.000000)" fill="#FFFFFF" fill-rule="nonzero">
            <g id="Group-6" transform="translate(178.000000, 149.250000)">
                <g id="Group">
                    <path d="M2.8,4.25 L5.98127305,4.25 L6.91857767,3.35028682 C6.98561838,3.28593485 7.07494671,3.25 7.16787482,3.25 L12.8363455,3.25 C12.9297974,3.25 13.0195871,3.28634006 13.0867329,3.35133781 L14.0150939,4.25 L17.2,4.25 C18.1941125,4.25 19,5.05588745 19,6.05 L19,16.45 C19,17.4441125 18.1941125,18.25 17.2,18.25 L2.8,18.25 C1.80588745,18.25 1,17.4441125 1,16.45 L1,6.05 C1,5.05588745 1.80588745,4.25 2.8,4.25 Z M7.38510508,4.15 L6.60451591,4.89928294 C6.43691415,5.06016289 6.21359333,5.15 5.98127305,5.15 L2.8,5.15 C2.30294373,5.15 1.9,5.55294373 1.9,6.05 L1.9,16.45 C1.9,16.9470563 2.30294373,17.35 2.8,17.35 L17.2,17.35 C17.6970563,17.35 18.1,16.9470563 18.1,16.45 L18.1,6.05 C18.1,5.55294373 17.6970563,5.15 17.2,5.15 L14.0150939,5.15 C13.7814641,5.15 13.5569897,5.05914985 13.3891253,4.89665548 L12.6177945,4.15 L7.38510508,4.15 Z M10,15.25 C7.790861,15.25 6,13.459139 6,11.25 C6,9.040861 7.790861,7.25 10,7.25 C12.209139,7.25 14,9.040861 14,11.25 C14,13.459139 12.209139,15.25 10,15.25 Z M10,14.35 C11.7120827,14.35 13.1,12.9620827 13.1,11.25 C13.1,9.53791728 11.7120827,8.15 10,8.15 C8.28791728,8.15 6.9,9.53791728 6.9,11.25 C6.9,12.9620827 8.28791728,14.35 10,14.35 Z M15.6837487,8.82643034 C15.1314639,8.82643034 14.6837487,8.37871509 14.6837487,7.82643034 C14.6837487,7.27414559 15.1314639,6.82643034 15.6837487,6.82643034 C16.2360334,6.82643034 16.6837487,7.27414559 16.6837487,7.82643034 C16.6837487,8.37871509 16.2360334,8.82643034 15.6837487,8.82643034 Z" id="Combined-Shape"></path>
                </g>
            </g>
        </g>
    </g>
</svg>