<?xml version="1.0" encoding="UTF-8"?>
<svg width="25px" height="25px" viewBox="0 0 25 25" version="1.1" xmlns="http://www.w3.org/2000/svg" xmlns:xlink="http://www.w3.org/1999/xlink">
    <title>currency_enclosure</title>
    <g id="首页" stroke="none" stroke-width="1" fill="none" fill-rule="evenodd">
        <g id="-命名规范" transform="translate(-932.000000, -179.000000)">
            <g id="icon/enclosure" transform="translate(932.857143, 179.500000)">
                <g id="Group-11">
                    <rect id="Rectangle" x="0" y="0" width="24" height="24"></rect>
                    <g id="Group-10" transform="translate(2.000000, 0.000000)">
                        <path d="M14.4444444,0 L20,7.04308232 L20,21.3333333 C20,22.8060927 18.8807119,24 17.5,24 L2.5,24 C1.11928812,24 0,22.8060927 0,21.3333333 L0,2.66666668 C0,1.19390735 1.11928812,0 2.5,0 L14.4444444,0 Z M8.96138997,7.48407509 C8.42084942,8.36788462 9.2007722,10.1202656 9.56370658,10.828837 C9.15261132,12.0999365 8.61997051,13.3295955 7.97297298,14.501218 C5.08494209,15.7202656 5,16.4593132 5,16.7259798 C5.01001575,17.0546601 5.20729257,17.3495789 5.50965252,17.4878846 C5.64359957,17.5702444 5.79990779,17.61013 5.95752896,17.6021703 C6.72972972,17.6021703 7.57915058,16.7716942 8.51351353,15.148837 C9.66600008,14.6681017 10.8600077,14.2907057 12.0810811,14.021218 C12.7075681,14.5439593 13.4865412,14.8561977 14.3050193,14.9126465 C14.8146719,14.9126465 15.8494209,14.9126465 15.8494209,13.8993132 C15.8571429,13.556456 15.6486486,12.9012179 14.2664093,12.8707417 C13.6328359,12.8815302 13.0018201,12.9529764 12.3822394,13.0840751 C11.6288669,12.4004842 10.9971761,11.5969318 10.5135135,10.7069322 C11.030888,9.0535989 11.0540541,7.92597987 10.6679537,7.39264653 C10.4841564,7.15361992 10.1997712,7.01051729 9.89575289,7.00407509 C9.51585679,6.96949524 9.15053142,7.15716983 8.96138997,7.48407509 Z M7.00000001,15.8955037 C6.77959886,16.2852432 6.43087061,16.589 6.01158302,16.7564561 L5.91891894,16.7564561 C6.18152207,16.3671039 6.55885515,16.066603 7.00000001,15.8955037 Z M10.042471,12.1316942 C10.3902973,12.6532921 10.7913609,13.1383635 11.2393823,13.5793132 L11.1544402,13.5793132 L11.2471043,13.6707417 C10.5540472,13.8301032 9.87081635,14.0285238 9.2007722,14.2650275 L9.2007722,14.2040751 L9.13899615,14.2040751 C9.47104249,13.556456 9.77220078,12.8707417 10.042471,12.1926465 L10.042471,12.1316942 Z M14.1969112,13.8002656 C14.7915058,13.8002656 14.9150579,13.9450275 14.9150579,14.0364561 C14.7237771,14.0882418 14.5230081,14.0960612 14.3281853,14.0593132 L14.3359074,14.0593132 C14.0226027,14.0476534 13.7139688,13.9805561 13.4247104,13.861218 C13.6789045,13.8118537 13.937996,13.7914028 14.1969112,13.8002656 Z M9.82625485,7.92597984 L9.91891893,7.92597984 C10.0776655,8.42184155 10.0776655,8.95392766 9.91891893,9.44978937 C9.6793053,8.97903098 9.60332687,8.44356398 9.7027027,7.92597984 C9.74267441,7.91203614 9.78628314,7.91203614 9.82625485,7.92597984 Z" id="Combined-Shape" fill="#ED5050" fill-rule="nonzero"></path>
                        <path d="M14.4444444,0 L14.4444444,5.0154495 C14.4444444,6.11396708 15.3304507,7.00687082 16.4289353,7.01538937 L20,7.04308232 L20,7.04308232 L14.4444444,0 Z" id="Path" fill="#D43030"></path>
                    </g>
                </g>
            </g>
        </g>
    </g>
</svg>