<?xml version="1.0" encoding="UTF-8"?>
<svg width="19px" height="19px" viewBox="0 0 19 19" version="1.1" xmlns="http://www.w3.org/2000/svg" xmlns:xlink="http://www.w3.org/1999/xlink">
    <title>currency_icon_zan_d</title>
    <g id="首页" stroke="none" stroke-width="1" fill="none" fill-rule="evenodd">
        <g id="-命名规范" transform="translate(-669.000000, -336.000000)">
            <g id="icon/zan_1" transform="translate(668.166667, 335.000000)">
                <g id="Group">
                    <g id="Group-4">
                        <rect id="Rectangle-Copy" x="0" y="0" width="20" height="20"></rect>
                        <g id="Group-3" transform="translate(0.875000, 1.250000)" fill="#888888" fill-rule="nonzero">
                            <path d="M10.1394795,0.291478482 C12.2453974,0.291478482 12.6772379,2.31977668 11.8471343,5.9350571 L11.8471343,5.9350571 L15.203413,5.9350571 C15.4146446,5.9350571 15.625104,5.96055322 15.8302252,6.01099229 C17.2380348,6.35717114 18.0986566,7.77905973 17.7524778,9.18686935 L17.7524778,9.18686935 L16.1543258,15.6860928 C15.9344957,16.5800784 15.1327982,17.2085215 14.2121812,17.2085215 L14.2121812,17.2085215 L2.59532859,17.2085215 C1.49075909,17.2085215 0.595328586,16.313091 0.595328586,15.2085215 L0.595328586,15.2085215 L0.595328586,8.48519391 C0.595328586,7.3806204 1.49076364,6.48518737 2.59532859,6.48519391 L2.59532859,6.48519391 L4.35492692,6.48532549 C6.27889854,6.52136937 7.1162144,5.73038186 7.69137247,3.91266841 C7.74736749,3.73570329 7.80137948,3.54929433 7.86420324,3.31951137 C7.89490829,3.20720516 8.00253248,2.80465888 8.02520204,2.72137265 C8.48770483,1.02217261 8.94070212,0.291478482 10.1394795,0.291478482 Z M2.59532859,7.98519391 C2.31918658,7.98519227 2.09532859,8.20904976 2.09532859,8.48519391 L2.09532859,8.48519391 L2.09532859,15.2085215 C2.09532859,15.4846639 2.31918621,15.7085215 2.59532859,15.7085215 L2.59532859,15.7085215 L4.37532859,15.7084785 L4.37532859,7.98447848 Z M10.1394795,1.79147848 C9.92701505,1.79147848 9.75920414,2.062161 9.47254552,3.11532296 C9.45114209,3.19395753 9.34322368,3.59760429 9.31109984,3.71509981 C9.24348284,3.96241445 9.18428453,4.16672271 9.12148793,4.36518332 C8.52639581,6.24589583 7.5611964,7.43893981 5.87667946,7.83791372 L5.87532859,15.7084785 L14.2121812,15.7085215 C14.4135662,15.7085215 14.5921892,15.5882336 14.6705156,15.4084365 L14.6977174,15.3279143 L16.2958693,8.82869092 C16.4442317,8.22534394 16.0753938,7.61596311 15.4720468,7.46760075 C15.3841377,7.44598401 15.2939408,7.4350571 15.203413,7.4350571 L15.203413,7.4350571 L10.887107,7.4350571 C10.3939732,7.4350571 10.0350407,6.96730526 10.1626554,6.49096978 C11.0522102,3.17061175 10.8695109,1.79147848 10.1394795,1.79147848 Z" id="Combined-Shape"></path>
                        </g>
                    </g>
                </g>
            </g>
        </g>
    </g>
</svg>