<?xml version="1.0" encoding="UTF-8"?>
<svg width="21px" height="16px" viewBox="0 0 21 16" version="1.1" xmlns="http://www.w3.org/2000/svg" xmlns:xlink="http://www.w3.org/1999/xlink">
    <title>currency_icon_read</title>
    <g id="首页" stroke="none" stroke-width="1" fill="none" fill-rule="evenodd">
        <g id="-命名规范" transform="translate(-609.000000, -337.000000)">
            <g id="icon/阅读量" transform="translate(609.500000, 335.000000)">
                <g id="Group">
                    <g id="Group-7">
                        <rect id="Rectangle" x="0" y="0" width="20" height="20"></rect>
                        <path d="M10,13.75 C7.92893219,13.75 6.25,12.0710678 6.25,10 C6.25,7.92893219 7.92893219,6.25 10,6.25 C12.0710678,6.25 13.75,7.92893219 13.75,10 C13.75,12.0710678 12.0710678,13.75 10,13.75 Z M10,12.25 C11.2426407,12.25 12.25,11.2426407 12.25,10 C12.25,8.75735931 11.2426407,7.75 10,7.75 C8.75735931,7.75 7.75,8.75735931 7.75,10 C7.75,11.2426407 8.75735931,12.25 10,12.25 Z M10,18.0357143 C6.37098084,18.0357143 3.15669573,15.5357143 0.349998397,10.6598772 C0.216667201,10.4282522 0.216667201,10.1431763 0.349998397,9.91155133 C3.15669573,5.03571429 6.37098084,2.53571429 10,2.53571429 C13.6290192,2.53571429 16.8433043,5.03571429 19.6500016,9.91155133 C19.7833328,10.1431763 19.7833328,10.4282522 19.6500016,10.6598772 C16.8433043,15.5357143 13.6290192,18.0357143 10,18.0357143 Z M10,4.03571429 C7.08673923,4.03571429 4.37425497,6.08108674 1.86910185,10.2857143 C4.37425497,14.4903418 7.08673923,16.5357143 10,16.5357143 C12.9132608,16.5357143 15.625745,14.4903418 18.1308981,10.2857143 C15.625745,6.08108674 12.9132608,4.03571429 10,4.03571429 Z" id="Shape" fill="#888888" fill-rule="nonzero"></path>
                    </g>
                </g>
            </g>
        </g>
    </g>
</svg>