<?xml version="1.0" encoding="UTF-8"?>
<svg width="19px" height="18px" viewBox="0 0 19 18" version="1.1" xmlns="http://www.w3.org/2000/svg" xmlns:xlink="http://www.w3.org/1999/xlink">
    <title>currency_comment_read</title>
    <g id="首页" stroke="none" stroke-width="1" fill="none" fill-rule="evenodd">
        <g id="-命名规范" transform="translate(-639.000000, -336.000000)">
            <g id="icon/zan_1-copy" transform="translate(638.833333, 335.000000)">
                <g id="Group-2">
                    <g id="Group">
                        <rect id="Rectangle" opacity="0.300000012" x="0" y="0" width="20" height="20"></rect>
                        <path d="M10,1 C14.9705627,1 19,5.02943725 19,10 C19,14.9705627 14.9705627,19 10,19 C8.38869587,19 6.87629064,18.5765635 5.56798946,17.8348956 L3.16110668,17.8348956 C2.60938737,17.8348956 2.16190348,17.3880685 2.16110776,16.8363497 L2.16293572,14.4281828 C1.42261114,13.1207598 1,11.6097329 1,10 C1,5.02943725 5.02943725,1 10,1 Z M10,2.5 C5.85786438,2.5 2.5,5.85786438 2.5,10 C2.5,11.312972 2.83651665,12.5735105 3.46820379,13.6890784 C3.59760428,13.9176014 3.66474056,14.1760926 3.66289883,14.4387023 L3.66086231,14.9316516 L3.66,16.334 L5.56798946,16.3348956 C5.77542854,16.3348956 5.98003356,16.3779148 6.16907177,16.4605952 L6.3077327,16.5299895 C7.42406936,17.1628339 8.68576531,17.5 10,17.5 C14.1421356,17.5 17.5,14.1421356 17.5,10 C17.5,5.85786438 14.1421356,2.5 10,2.5 Z M6,9 C6.55228475,9 7,9.44771525 7,10 C7,10.5522847 6.55228475,11 6,11 C5.44771525,11 5,10.5522847 5,10 C5,9.44771525 5.44771525,9 6,9 Z M10,9 C10.5522847,9 11,9.44771525 11,10 C11,10.5522847 10.5522847,11 10,11 C9.44771525,11 9,10.5522847 9,10 C9,9.44771525 9.44771525,9 10,9 Z M14,9 C14.5522847,9 15,9.44771525 15,10 C15,10.5522847 14.5522847,11 14,11 C13.4477153,11 13,10.5522847 13,10 C13,9.44771525 13.4477153,9 14,9 Z" id="Combined-Shape" fill="#888888"></path>
                    </g>
                </g>
            </g>
        </g>
    </g>
</svg>